<svg width="254" height="133" viewBox="0 0 254 133" fill="none" xmlns="http://www.w3.org/2000/svg">
<g clip-path="url(#clip0_3_2)">
<path d="M176.619 27.4545C176.079 27.1302 175.43 27.2383 175.106 27.7787C174.349 28.9677 173.485 29.4001 172.62 29.0758C170.242 28.3192 167.864 23.1309 168.188 16.1052C168.405 9.83604 167.324 5.72869 164.946 3.7831C163.649 2.8103 162.135 2.48601 160.514 2.81027C158.569 0.97277 156.082 0 153.272 0H153.056C153.056 0 139.113 0 126.142 0C118.576 0 112.955 0 109.28 0C95.8772 0.108088 91.3375 9.83604 88.9596 15.0243C88.311 16.4294 87.5544 18.0508 86.6897 19.6721C84.5279 24.2118 82.0419 29.292 80.961 32.7508L77.9345 29.8324C77.6103 29.5081 77.1779 29.5081 76.8536 29.6162C76.4213 29.7243 76.2051 30.0486 76.097 30.4809C75.9889 31.0214 75.4485 35.8853 77.0698 38.4795C77.1779 40.317 76.9617 43.3434 76.7456 46.0457C76.5294 48.7479 76.3132 51.1258 76.4213 52.4229C76.4213 52.531 76.4213 52.8552 76.3132 53.1795C76.097 54.3685 75.5566 56.7464 79.0154 58.3678C79.8801 58.8001 80.7448 59.0163 81.6095 59.0163C83.6632 59.0163 85.0684 57.8273 85.7169 56.8545C86.0412 56.3141 86.2573 55.7736 86.2573 55.2332C87.1221 54.4766 88.9595 52.8553 92.0941 49.1802C96.3096 44.1001 96.5257 42.4788 94.364 39.8846C95.7691 38.0471 98.5794 37.6148 102.146 37.6148H102.795C102.903 42.0464 100.309 52.3148 97.3904 56.8545C97.1743 57.1788 97.1743 57.6111 97.3904 57.9354C97.6066 58.2597 97.9309 58.4758 98.3632 58.4758H103.876C104.308 58.4758 104.632 58.2597 104.849 57.8273C105.821 55.8817 107.226 51.9905 108.74 48.3155C109.496 46.2618 110.361 44.2082 110.901 42.803C111.766 44.2082 112.415 45.5052 112.739 46.478C113.928 49.8288 113.712 55.7736 113.496 57.8273C113.496 58.1516 113.604 58.4758 113.82 58.692C114.036 58.9082 114.36 59.0163 114.577 59.0163H119.657C120.305 59.0163 120.738 58.5839 120.738 57.9354V38.2633L121.386 38.3714C126.791 38.5876 132.303 38.8038 135.654 38.9118H135.978C137.383 38.9118 138.572 38.8037 139.545 38.4795C140.085 38.9118 140.626 39.2361 141.382 39.5603L140.842 40.7493C140.626 41.1817 140.626 41.7221 140.734 42.1545C140.95 42.5869 141.274 43.0192 141.707 43.2354C142.571 43.6677 143.76 43.2354 144.193 42.3707L144.949 40.7493C145.49 40.8574 146.03 40.9655 146.571 40.9655V42.4788C146.571 42.9111 146.679 43.2354 146.895 43.5596C147.219 43.992 147.76 44.3163 148.408 44.3163C149.381 44.3163 150.246 43.4515 150.138 42.3707V40.8574C150.894 40.7493 151.543 40.4251 152.191 40.1008C153.056 41.9383 153.488 43.7758 153.38 44.7486C153.056 47.3427 151.543 53.7199 149.273 57.3949C149.057 57.7192 149.057 58.1516 149.273 58.4758C149.489 58.8001 149.813 59.0163 150.246 59.0163H156.082C156.515 59.0163 156.947 58.8001 157.055 58.3678C157.055 58.2597 159.541 52.6391 161.379 47.0185C161.595 50.8016 160.514 54.6927 159.757 56.9626C159.649 57.2869 159.649 57.6111 159.866 57.9354C160.082 58.2597 160.406 58.3678 160.73 58.3678H166.027C166.459 58.3678 166.891 58.0435 167.107 57.6111C167.216 57.0707 169.377 49.5045 169.81 44.6405C170.35 39.2361 167.972 34.0479 165.919 30.589C163.757 27.0221 162.676 18.375 163.432 15.4566C164.405 11.3493 163.865 7.56618 162.135 4.64779C162.676 4.75588 163.108 4.86397 163.649 5.29633C164.946 6.26912 166.351 8.97132 166.135 15.889C165.81 24.428 168.837 29.9405 172.08 31.0214C172.512 31.1295 172.944 31.2376 173.269 31.2376C174.674 31.2376 175.971 30.4809 177.052 28.9677C177.268 28.4273 177.16 27.7787 176.619 27.4545ZM106.578 47.4508C105.821 49.5045 104.957 51.7743 104.2 53.6118H101.282C103.335 48.6398 104.957 41.8302 104.957 37.831C106.794 38.3714 108.199 39.4523 109.28 40.7493C108.632 42.1545 107.659 44.6405 106.578 47.4508ZM159.433 45.6133C158.569 48.5317 157.38 51.4501 156.515 53.7199H153.164C154.353 50.4773 155.11 46.9104 155.326 44.8567C155.65 42.3707 153.596 37.3986 151.327 34.8045C150.138 33.3993 148.841 32.7508 147.652 32.7508C145.922 32.7508 144.625 33.5074 143.328 34.3721C141.491 35.453 139.545 36.642 135.762 36.642H135.438C132.087 36.642 126.574 36.4258 121.278 36.1015L119.549 35.9934C119.224 35.9934 118.9 36.1015 118.684 36.3177C118.468 36.5339 118.36 36.8582 118.36 37.0743V53.828H115.657C115.657 51.2339 115.441 48.0994 114.577 45.7214C113.496 42.803 110.145 35.8854 102.903 35.453H102.038C97.9309 35.453 93.9316 35.9935 91.986 39.4523C91.7698 39.8846 91.8779 40.317 92.0941 40.6412C93.8235 42.5868 94.1478 43.0192 90.2566 47.667C86.1493 52.6391 84.4198 53.7199 84.3117 53.7199C83.7713 54.0442 83.5551 54.5847 83.8794 55.1251C83.8794 55.2332 83.7713 55.5574 83.5551 55.8817C82.6904 56.8545 81.2853 57.0707 79.8801 56.4222C77.9345 55.4494 78.0426 54.6927 78.3669 53.6118C78.475 53.1795 78.583 52.7472 78.475 52.2067C78.3669 51.1258 78.5831 48.7479 78.7992 46.1538C79.0154 43.1273 79.3397 39.8846 79.1235 37.939C79.1235 37.7228 79.0154 37.5067 78.9073 37.3986C78.1507 36.4258 78.0426 34.4802 78.0426 32.8589L80.7448 35.453C81.0691 35.7773 81.3934 35.7773 81.8257 35.6692C82.15 35.5611 82.4742 35.2368 82.5823 34.8045C82.9066 33.075 83.9875 30.589 85.1765 27.7787C85.7169 28.7515 86.2573 29.292 86.7978 29.5081C87.014 29.6162 87.2301 29.6162 87.4463 29.6162C88.2029 29.6162 88.9595 29.1839 89.8242 28.7515C91.5537 27.8868 93.7154 26.6978 97.1743 28.103C98.4713 28.6434 99.4441 28.6434 100.201 28.103C101.498 27.1302 101.174 24.5361 100.741 21.5096C100.417 19.0236 99.9846 16.2133 100.741 14.9162C100.957 14.4838 101.282 14.2677 101.606 14.1596C102.471 13.9434 103.768 14.7 105.065 15.5647C106.686 16.6456 108.632 17.8346 109.929 16.4294C111.118 15.1324 111.658 14.0515 111.55 12.8625C111.442 11.2412 110.253 9.40368 107.767 7.35C104.524 4.5397 99.9846 5.40442 96.5257 6.91765C99.336 4.21544 103.227 2.16177 109.172 2.16177C110.685 2.16177 112.631 2.16177 114.901 2.16177C113.604 3.35074 112.631 4.86398 112.415 6.48531C112.199 8.10663 113.063 9.40369 114.685 10.1603L115.009 10.3765C119.332 12.4301 124.845 15.0243 123.115 18.9155C121.818 21.8339 121.927 26.2655 124.196 28.6434C125.061 29.5081 126.358 30.3728 128.52 30.3728C129.493 30.3728 130.682 30.1567 131.979 29.7243C135.654 28.4273 144.517 24.8603 146.355 19.564C147.003 17.7265 146.679 15.889 145.49 14.0515C142.896 10.1603 138.896 9.72795 136.194 9.51177C135.329 9.40368 134.249 9.2956 134.032 9.07942C134.032 9.07942 134.032 8.97132 134.141 8.75514C134.573 7.78234 135.438 6.91763 136.194 6.05293C137.275 4.97204 138.464 3.67501 138.248 2.16177C146.463 2.16177 153.056 2.16177 153.056 2.16177H153.164C155.866 2.16177 158.244 3.35074 159.757 5.40442C161.811 8.21472 162.135 12.214 160.73 16.7537C157.812 26.2655 156.947 30.6971 159.217 34.1559C160.946 36.4258 161.487 39.128 159.433 45.6133ZM163.973 31.778C165.919 34.9126 168.08 39.6684 167.54 44.4243C167.216 47.2346 166.459 50.9096 165.81 53.6118H162.784C163.541 50.153 163.865 45.9376 162.568 42.1545C163.324 38.1552 162.892 35.3449 161.163 32.7508C159.866 30.8052 159.866 28.3192 161.379 22.6986C161.811 26.2655 162.784 29.8324 163.973 31.778ZM81.9338 41.7221C81.2853 41.7221 80.7448 42.2626 80.7448 42.9111C80.7448 43.5596 81.2853 44.1001 81.9338 44.1001C82.5823 44.1001 83.1228 43.5596 83.1228 42.9111C83.2309 42.2626 82.6904 41.7221 81.9338 41.7221ZM116.738 27.5626C115.874 27.1302 115.441 25.8331 115.009 24.428C114.468 22.4824 113.82 20.3206 111.55 19.9964C110.145 19.7802 109.064 20.1044 108.307 20.9692C107.226 22.2662 107.01 24.3199 107.118 25.9412V26.3736C107.443 28.8596 107.875 33.0751 113.928 33.3993C114.144 33.3993 114.36 33.3993 114.468 33.3993C118.035 33.3993 118.684 31.778 118.9 31.1295C119.224 29.7243 118.36 28.2111 116.738 27.5626ZM157.812 7.67425C156.299 5.29631 153.813 3.78309 151.218 3.675C151.11 3.675 151.002 3.675 151.002 3.675C149.381 3.675 144.193 4.43161 143.76 6.26912C143.652 6.70147 143.76 7.35 144.733 7.89044C147.543 9.61986 150.246 12.7544 149.813 14.7C149.381 16.3213 149.813 17.4022 150.354 17.9427C151.002 18.8074 152.083 19.2397 153.38 19.2397C155.11 19.2397 157.596 18.2669 158.785 15.5647C159.649 13.0787 159.325 10.1603 157.812 7.67425Z" fill="#FD7014"/>
<path d="M7.17286 88.9125H22.9171V95.0929H7.17286V108.446H0V75.469H24.9922V81.6494H7.17286V88.9125ZM47.1875 105.965C46.616 106.747 45.6311 107.446 44.2326 108.063C42.8341 108.679 41.3078 108.987 39.6537 108.987C37.0974 108.987 34.8793 108.416 32.9997 107.273C31.12 106.13 29.6839 104.574 28.6914 102.604C27.699 100.634 27.2027 98.4462 27.2027 96.0402C27.2027 93.6342 27.699 91.4463 28.6914 89.4764C29.6839 87.5065 31.12 85.9501 32.9997 84.8073C34.8793 83.6644 37.0974 83.093 39.6537 83.093C41.368 83.093 42.8792 83.3862 44.1875 83.9727C45.4958 84.5591 46.4957 85.3035 47.1875 86.2057V83.6343H53.8641V108.446H47.1875V105.965ZM45.6085 90.9651C44.3755 89.6568 42.7214 89.0027 40.6462 89.0027C38.5409 89.0027 36.8793 89.6568 35.6613 90.9651C34.4432 92.2733 33.8342 93.9651 33.8342 96.0402C33.8342 98.0552 34.4583 99.7244 35.7064 101.048C36.9545 102.371 38.6011 103.033 40.6462 103.033C42.7514 103.033 44.4131 102.409 45.6311 101.16C46.8491 99.9124 47.4581 98.2056 47.4581 96.0402C47.4581 93.9651 46.8416 92.2733 45.6085 90.9651ZM72.3601 90.108C71.0669 90.4237 69.879 91.1681 68.7963 92.341C67.7136 93.5139 67.1722 95.2282 67.1722 97.4838V108.446H60.4505V83.6343H67.1722V86.9275C68.285 85.4539 69.6459 84.4539 71.2549 83.9276C72.8639 83.4013 74.33 83.1531 75.6533 83.1832V89.7696C74.7511 89.6794 73.6534 89.7922 72.3601 90.108ZM116.683 85.9802C118.382 87.8448 119.232 90.4463 119.232 93.7846V108.446H112.42V93.7846C112.42 92.0102 111.976 90.732 111.089 89.9501C110.202 89.1681 109.036 88.7771 107.593 88.7771C106.39 88.7771 105.307 89.2283 104.345 90.1305C103.382 91.0328 102.886 92.5365 102.856 94.6417V108.446H96.0441V93.7846C96.0441 92.0102 95.6005 90.732 94.7133 89.9501C93.8261 89.1681 92.6757 88.7771 91.2622 88.7771C89.969 88.7771 88.8487 89.2583 87.9013 90.2207C86.954 91.1831 86.4803 92.8824 86.4803 95.3184L86.4352 108.446H79.7134V83.6343H86.4352V85.89C87.3073 85.108 88.36 84.4614 89.593 83.9501C90.8261 83.4389 91.9539 83.1832 92.9765 83.1832C96.4651 83.1832 99.1268 84.311 100.961 86.5666C101.894 85.514 103.052 84.687 104.435 84.0855C105.818 83.484 107.322 83.1832 108.946 83.1832C112.405 83.1832 114.984 84.1155 116.683 85.9802ZM126.63 75.469H140.254C145.156 75.469 149.171 76.8525 152.299 79.6193C153.983 81.093 155.262 82.875 156.134 84.9652C157.006 87.0554 157.442 89.3786 157.442 91.935C157.442 94.4312 156.991 96.7545 156.089 98.9049C155.186 101.055 153.923 102.867 152.299 104.341C150.795 105.664 149.013 106.679 146.953 107.386C144.893 108.093 142.66 108.446 140.254 108.446H126.63V75.469ZM140.254 102.266C143.081 102.266 145.45 101.529 147.359 100.055C149.269 98.5816 150.224 95.8898 150.224 91.9801C150.224 88.0704 149.262 85.3787 147.337 83.905C145.412 82.4313 143.051 81.6945 140.254 81.6945H133.758V102.266H140.254ZM181.893 105.965C181.321 106.747 180.336 107.446 178.938 108.063C177.539 108.679 176.013 108.987 174.359 108.987C171.803 108.987 169.585 108.416 167.705 107.273C165.825 106.13 164.389 104.574 163.397 102.604C162.404 100.634 161.908 98.4462 161.908 96.0402C161.908 93.6342 162.404 91.4463 163.397 89.4764C164.389 87.5065 165.825 85.9501 167.705 84.8073C169.585 83.6644 171.803 83.093 174.359 83.093C176.073 83.093 177.585 83.3862 178.893 83.9727C180.201 84.5591 181.201 85.3035 181.893 86.2057V83.6343H188.569V108.446H181.893V105.965ZM180.314 90.9651C179.081 89.6568 177.427 89.0027 175.352 89.0027C173.246 89.0027 171.585 89.6568 170.367 90.9651C169.149 92.2733 168.54 93.9651 168.54 96.0402C168.54 98.0552 169.164 99.7244 170.412 101.048C171.66 102.371 173.306 103.033 175.352 103.033C177.457 103.033 179.118 102.409 180.336 101.16C181.554 99.9124 182.163 98.2056 182.163 96.0402C182.163 93.9651 181.547 92.2733 180.314 90.9651ZM201.562 79.9577C200.84 80.6644 199.968 81.0178 198.945 81.0178C197.893 81.0178 196.998 80.6644 196.261 79.9577C195.524 79.2509 195.156 78.3863 195.156 77.3637C195.156 76.3713 195.524 75.5216 196.261 74.8149C196.998 74.1081 197.893 73.7547 198.945 73.7547C199.968 73.7547 200.84 74.1081 201.562 74.8149C202.284 75.5216 202.644 76.3713 202.644 77.3637C202.644 78.3863 202.284 79.2509 201.562 79.9577ZM195.562 83.6795H202.329V108.446H195.562V83.6795ZM220.825 90.108C219.532 90.4237 218.344 91.1681 217.261 92.341C216.178 93.5139 215.637 95.2282 215.637 97.4838V108.446H208.915V83.6343H215.637V86.9275C216.75 85.4539 218.11 84.4539 219.719 83.9276C221.328 83.4013 222.795 83.1531 224.118 83.1832V89.7696C223.216 89.6794 222.118 89.7922 220.825 90.108ZM231.787 117.739L236.073 107.544L225.426 83.7246H233.231L239.501 99.5139L245.276 83.7246H253.08L239.231 117.739H231.787Z" fill="#393E46"/>
<path d="M30.6853 132.106H29.3517V129.06H26.6416V132.106H25.308V125.231H26.6416V127.959H29.3517V125.231H30.6853V132.106ZM43.8127 132.106H42.3501L41.7134 130.729H38.3752L37.7299 132.106H36.2673L39.5195 125.223H40.5605L43.8127 132.106ZM41.1886 129.619L40.0443 127.141L38.8828 129.619H41.1886ZM55.1161 132.106H53.8084L50.7025 127.279V132.106H49.3947V125.223H50.8917L53.8084 129.714V125.223H55.1161V132.106ZM67.4176 128.664C67.4176 129.14 67.3373 129.586 67.1767 130.002C67.0161 130.418 66.7924 130.782 66.5056 131.095C66.2188 131.407 65.8761 131.654 65.4775 131.835C65.0788 132.015 64.6444 132.106 64.174 132.106H61.3004V125.223H64.174C64.6444 125.223 65.0788 125.315 65.4775 125.498C65.8761 125.682 66.2188 125.928 66.5056 126.238C66.7924 126.548 67.0161 126.912 67.1767 127.331C67.3373 127.749 67.4176 128.194 67.4176 128.664ZM66.0668 128.63C66.0726 128.309 66.0238 128.005 65.9206 127.718C65.8173 127.431 65.6682 127.18 65.4732 126.965C65.2782 126.75 65.0387 126.581 64.7548 126.458C64.4709 126.334 64.1511 126.273 63.7955 126.273H62.634V130.97H63.7955C64.1454 130.97 64.4594 130.911 64.7376 130.794C65.0158 130.676 65.2523 130.513 65.4474 130.303C65.6424 130.094 65.7929 129.847 65.8991 129.563C66.0052 129.279 66.0611 128.968 66.0668 128.63ZM79.6416 130.867C79.2975 131.286 78.8802 131.618 78.3898 131.865C77.8994 132.112 77.3588 132.235 76.768 132.235C76.2575 132.235 75.7786 132.142 75.3312 131.955C74.8838 131.769 74.4938 131.515 74.1611 131.194C73.8284 130.873 73.566 130.495 73.3739 130.062C73.1817 129.629 73.0857 129.163 73.0857 128.664C73.0857 128.165 73.1817 127.699 73.3739 127.266C73.566 126.833 73.8284 126.455 74.1611 126.131C74.4938 125.807 74.8838 125.553 75.3312 125.369C75.7786 125.186 76.2575 125.094 76.768 125.094C77.3588 125.094 77.8994 125.217 78.3898 125.464C78.8802 125.71 79.2889 126.032 79.6158 126.427L78.6952 127.374C78.483 127.07 78.2091 126.825 77.8736 126.638C77.538 126.452 77.1695 126.359 76.768 126.359C76.4468 126.359 76.1443 126.42 75.8603 126.544C75.5764 126.667 75.3283 126.833 75.1161 127.043C74.9039 127.252 74.7361 127.496 74.6128 127.774C74.4895 128.052 74.4278 128.349 74.4278 128.664C74.4278 128.974 74.4895 129.268 74.6128 129.546C74.7361 129.824 74.9039 130.068 75.1161 130.278C75.3283 130.487 75.5764 130.653 75.8603 130.777C76.1443 130.9 76.4468 130.962 76.768 130.962C77.1925 130.962 77.5682 130.865 77.8951 130.673C78.222 130.481 78.4945 130.227 78.7124 129.912L79.6416 130.867ZM90.403 132.106H88.9318L88.4414 130.54C88.3898 130.368 88.3253 130.21 88.2478 130.067C88.1704 129.923 88.0772 129.8 87.9682 129.697C87.8592 129.594 87.7288 129.513 87.5768 129.456C87.4248 129.399 87.2455 129.37 87.039 129.37H86.54V132.106H85.2237V125.231L87.9424 125.223C88.2349 125.223 88.5074 125.273 88.7598 125.373C89.0121 125.474 89.2301 125.613 89.4136 125.791C89.5972 125.969 89.7406 126.178 89.8438 126.419C89.9471 126.66 89.9987 126.921 89.9987 127.202C89.9987 127.402 89.9671 127.597 89.904 127.787C89.8409 127.976 89.752 128.151 89.6373 128.312C89.5226 128.472 89.3864 128.614 89.2287 128.737C89.0709 128.861 88.8974 128.954 88.7081 129.017C88.9261 129.097 89.1039 129.214 89.2416 129.366C89.3792 129.518 89.4882 129.7 89.5685 129.912C89.6086 130.009 89.6459 130.107 89.6803 130.204C89.7148 130.302 89.7506 130.404 89.7879 130.51C89.8252 130.616 89.8653 130.731 89.9083 130.854C89.9514 130.977 89.9987 131.114 90.0503 131.263C90.1134 131.452 90.1722 131.614 90.2267 131.749C90.2812 131.884 90.34 132.003 90.403 132.106ZM88.6565 127.296C88.6565 127.136 88.6264 126.99 88.5662 126.858C88.5059 126.726 88.4242 126.611 88.321 126.513C88.2177 126.416 88.0958 126.34 87.9553 126.285C87.8148 126.231 87.6642 126.204 87.5036 126.204H86.54V128.346H87.5036C87.6642 128.346 87.8148 128.322 87.9553 128.273C88.0958 128.224 88.2177 128.154 88.321 128.062C88.4242 127.97 88.5059 127.86 88.5662 127.731C88.6264 127.602 88.6565 127.457 88.6565 127.296ZM103.057 132.106H101.595L100.958 130.729H97.6198L96.9745 132.106H95.5119L98.7641 125.223H99.8051L103.057 132.106ZM100.433 129.619L99.2889 127.141L98.1274 129.619H100.433ZM113.182 126.376H109.947V127.976H113.139V129.06H109.947V132.106H108.639V125.231H113.182V126.376ZM123.66 126.419H121.758V132.106H120.407V126.419H118.506V125.231H123.66V126.419ZM133.956 132.106H129.414V125.231H133.956V126.333H130.721V127.976H133.913V129.052H130.721V130.944H133.956V132.106ZM146 128.664C146 129.14 145.919 129.586 145.759 130.002C145.598 130.418 145.375 130.782 145.088 131.095C144.801 131.407 144.458 131.654 144.06 131.835C143.661 132.015 143.226 132.106 142.756 132.106H139.883V125.223H142.756C143.226 125.223 143.661 125.315 144.06 125.498C144.458 125.682 144.801 125.928 145.088 126.238C145.375 126.548 145.598 126.912 145.759 127.331C145.919 127.749 146 128.194 146 128.664ZM144.649 128.63C144.655 128.309 144.606 128.005 144.503 127.718C144.399 127.431 144.25 127.18 144.055 126.965C143.86 126.75 143.621 126.581 143.337 126.458C143.053 126.334 142.733 126.273 142.378 126.273H141.216V130.97H142.378C142.727 130.97 143.041 130.911 143.32 130.794C143.598 130.676 143.834 130.513 144.029 130.303C144.224 130.094 144.375 129.847 144.481 129.563C144.587 129.279 144.643 128.968 144.649 128.63ZM164.348 127.537C164.348 127.864 164.286 128.17 164.163 128.454C164.039 128.737 163.872 128.984 163.66 129.193C163.447 129.403 163.198 129.566 162.911 129.684C162.624 129.801 162.32 129.86 161.999 129.86H160.863V132.106H159.53V125.231H161.999C162.32 125.231 162.624 125.29 162.911 125.408C163.198 125.525 163.447 125.687 163.66 125.894C163.872 126.1 164.039 126.344 164.163 126.625C164.286 126.906 164.348 127.21 164.348 127.537ZM163.023 127.52C163.023 127.342 162.99 127.176 162.924 127.021C162.858 126.866 162.768 126.731 162.653 126.617C162.538 126.502 162.403 126.41 162.249 126.341C162.094 126.273 161.927 126.238 161.749 126.238H160.863V128.836H161.749C161.927 128.836 162.094 128.801 162.249 128.729C162.403 128.657 162.538 128.561 162.653 128.441C162.768 128.32 162.858 128.181 162.924 128.023C162.99 127.866 163.023 127.698 163.023 127.52ZM175.281 132.106H173.81L173.32 130.54C173.268 130.368 173.204 130.21 173.126 130.067C173.049 129.923 172.955 129.8 172.846 129.697C172.737 129.594 172.607 129.513 172.455 129.456C172.303 129.399 172.124 129.37 171.917 129.37H171.418V132.106H170.102V125.231L172.821 125.223C173.113 125.223 173.386 125.273 173.638 125.373C173.89 125.474 174.108 125.613 174.292 125.791C174.475 125.969 174.619 126.178 174.722 126.419C174.825 126.66 174.877 126.921 174.877 127.202C174.877 127.402 174.845 127.597 174.782 127.787C174.719 127.976 174.63 128.151 174.516 128.312C174.401 128.472 174.265 128.614 174.107 128.737C173.949 128.861 173.776 128.954 173.586 129.017C173.804 129.097 173.982 129.214 174.12 129.366C174.257 129.518 174.366 129.7 174.447 129.912C174.487 130.009 174.524 130.107 174.559 130.204C174.593 130.302 174.629 130.404 174.666 130.51C174.703 130.616 174.744 130.731 174.787 130.854C174.83 130.977 174.877 131.114 174.929 131.263C174.992 131.452 175.05 131.614 175.105 131.749C175.159 131.884 175.218 132.003 175.281 132.106ZM173.535 127.296C173.535 127.136 173.505 126.99 173.444 126.858C173.384 126.726 173.302 126.611 173.199 126.513C173.096 126.416 172.974 126.34 172.834 126.285C172.693 126.231 172.542 126.204 172.382 126.204H171.418V128.346H172.382C172.542 128.346 172.693 128.322 172.834 128.273C172.974 128.224 173.096 128.154 173.199 128.062C173.302 127.97 173.384 127.86 173.444 127.731C173.505 127.602 173.535 127.457 173.535 127.296ZM188.039 128.664C188.039 129.158 187.943 129.622 187.751 130.058C187.558 130.494 187.296 130.873 186.963 131.194C186.631 131.515 186.243 131.769 185.802 131.955C185.36 132.142 184.89 132.235 184.391 132.235C183.892 132.235 183.42 132.142 182.976 131.955C182.531 131.769 182.142 131.515 181.81 131.194C181.477 130.873 181.215 130.495 181.022 130.062C180.83 129.629 180.734 129.163 180.734 128.664C180.734 128.165 180.83 127.698 181.022 127.262C181.215 126.826 181.477 126.447 181.81 126.126C182.142 125.805 182.531 125.553 182.976 125.369C183.42 125.186 183.892 125.094 184.391 125.094C184.89 125.094 185.36 125.186 185.802 125.369C186.243 125.553 186.631 125.807 186.963 126.131C187.296 126.455 187.558 126.833 187.751 127.266C187.943 127.699 188.039 128.165 188.039 128.664ZM186.697 128.664C186.697 128.349 186.636 128.052 186.516 127.774C186.395 127.496 186.231 127.252 186.021 127.043C185.812 126.833 185.567 126.667 185.286 126.544C185.005 126.42 184.706 126.359 184.391 126.359C184.07 126.359 183.768 126.42 183.487 126.544C183.206 126.667 182.961 126.833 182.752 127.043C182.542 127.252 182.378 127.496 182.257 127.774C182.137 128.052 182.076 128.349 182.076 128.664C182.076 128.974 182.137 129.269 182.257 129.551C182.378 129.832 182.542 130.077 182.752 130.286C182.961 130.495 183.206 130.662 183.487 130.785C183.768 130.908 184.07 130.97 184.391 130.97C184.706 130.97 185.005 130.908 185.286 130.785C185.567 130.662 185.812 130.495 186.021 130.286C186.231 130.077 186.395 129.832 186.516 129.551C186.636 129.269 186.697 128.974 186.697 128.664ZM198.31 126.419H196.408V132.106H195.058V126.419H193.156V125.231H198.31V126.419ZM208.607 132.106H204.064V125.231H208.607V126.333H205.372V127.976H208.564V129.052H205.372V130.944H208.607V132.106ZM215.866 132.106H214.533V125.231H215.866V132.106ZM227.772 132.106H226.464L223.358 127.279V132.106H222.051V125.223H223.548L226.464 129.714V125.223H227.772V132.106Z" fill="#FD7014"/>
</g>
<defs>
<clipPath id="clip0_3_2">
<rect width="253.08" height="132.235" fill="white"/>
</clipPath>
</defs>
</svg>
